# xmcd CD database file
#
# Track frame offsets:
#	150
#	25868
#	53293
#	81723
#	131185
#	154555
#	190169
#	229440
#
# Disc length: 3517 seconds
#
# Revision: 1
# Processed by: cddbd v1.5.2PL0 Copyright (c) Steve Scherf et al.
# Submitted via: CDex 1.51
#
DISCID=640dbb08
DTITLE=Galinha Caipira Completa - Galinha Caipira Completa
DYEAR=2009
DGENRE=Jazz
TTITLE0=Nosso Som
TTITLE1=Galinha Caipira Completa
TTITLE2=Infancia
TTITLE3=Mensageiro dos Ventos
TTITLE4=Samba do Grande Amor
TTITLE5=Brasiliano
TTITLE6=Maria Fumaca
TTITLE7=E Vamos a Luta
EXTD=YEAR: 2009
EXTT0=
EXTT1=
EXTT2=
EXTT3=
EXTT4=
EXTT5=
EXTT6=
EXTT7=
PLAYORDER=
